<svg width="64" height="64" viewBox="0 0 64 64" fill="none" xmlns="http://www.w3.org/2000/svg">
<g clip-path="url(#clip0_106_126)">
<path d="M63.964 14.4534C63.9878 14.5384 64 14.6262 64 14.7144V28.4279C64 28.7862 63.8025 29.1171 63.4818 29.2953L51.6125 35.9224V49.057C51.6126 49.2327 51.5649 49.4054 51.4745 49.5577C51.384 49.71 51.2538 49.8365 51.097 49.9246L26.32 63.7557C26.2632 63.7867 26.2015 63.8066 26.1395 63.8281C26.1162 63.8354 26.0945 63.8492 26.07 63.8555C25.8968 63.8998 25.7147 63.8998 25.5415 63.8555C25.513 63.8483 25.4873 63.833 25.4603 63.8231C25.4035 63.8029 25.3443 63.7855 25.2903 63.7557L0.51825 49.9244C0.360835 49.8368 0.230035 49.7104 0.139045 49.5582C0.0480551 49.4059 9.38407e-05 49.233 0 49.057L0 7.91663C0 7.82645 0.013 7.73893 0.036 7.65409C0.04375 7.62524 0.06175 7.59906 0.07225 7.57021C0.0915 7.51784 0.10975 7.46403 0.138 7.4153C0.15725 7.38281 0.1855 7.35663 0.20875 7.32657C0.2385 7.28657 0.2655 7.24536 0.30025 7.21021C0.33 7.1816 0.36875 7.16027 0.40225 7.1353C0.43975 7.10524 0.473 7.07275 0.5155 7.04899H0.51675L12.9032 0.133601C13.0601 0.046069 13.2379 0 13.4189 0C13.5998 0 13.7776 0.046069 13.9345 0.133601L26.321 7.04899H26.3235C26.3647 7.07421 26.3998 7.10524 26.437 7.13409C26.4705 7.15906 26.508 7.1816 26.5375 7.20924C26.5738 7.24536 26.5995 7.28681 26.6303 7.32657C26.6523 7.35663 26.682 7.38281 26.7 7.4153C26.7295 7.46524 26.7463 7.51784 26.767 7.57045C26.7773 7.59906 26.7952 7.62524 26.803 7.6553C26.8267 7.74039 26.839 7.82839 26.8393 7.91663V33.6121L37.1608 27.849V14.7132C37.1608 14.626 37.1737 14.537 37.197 14.4534C37.206 14.4233 37.2228 14.3971 37.233 14.3685C37.2538 14.3159 37.2717 14.2618 37.3 14.2134C37.3192 14.1809 37.3475 14.1547 37.3698 14.1246C37.4005 14.0846 37.4262 14.0434 37.4622 14.0083C37.4922 13.9797 37.5295 13.9583 37.563 13.9334C37.6017 13.9033 37.6352 13.8708 37.6765 13.8471H37.6777L50.0655 6.93166C50.2223 6.84401 50.4001 6.79787 50.5811 6.79787C50.7621 6.79787 50.9399 6.84401 51.0967 6.93166L63.4832 13.8471C63.527 13.872 63.5605 13.9033 63.5993 13.9319C63.6313 13.9571 63.6688 13.9797 63.6985 14.0071C63.7345 14.0434 63.7603 14.0846 63.791 14.1246C63.8145 14.1547 63.8428 14.1809 63.861 14.2134C63.8905 14.2618 63.9072 14.3159 63.9277 14.3685C63.9395 14.3971 63.9563 14.4233 63.964 14.4534ZM61.9352 27.8492V16.4456L57.6005 18.8652L51.6123 22.2088V33.6124L61.9365 27.8492H61.9352ZM49.5488 48.4783V37.0667L43.6582 40.329L26.838 49.6381V61.1566L49.5488 48.4778V48.4783ZM2.06475 9.64754V48.4783L24.773 61.1557V49.6393L12.91 43.1288L12.9062 43.1263L12.9012 43.1239C12.8612 43.1014 12.8275 43.0689 12.7902 43.0415C12.7577 43.0163 12.7205 42.9964 12.6923 42.9688L12.6897 42.9651C12.6562 42.9338 12.633 42.8951 12.6047 42.8601C12.5787 42.8262 12.548 42.7976 12.5273 42.7627L12.526 42.7588C12.5028 42.7215 12.4885 42.6764 12.4718 42.634C12.455 42.5964 12.4333 42.5612 12.4228 42.5215V42.5203C12.41 42.4728 12.4075 42.4226 12.4023 42.3738C12.3973 42.3365 12.3868 42.2989 12.3868 42.2614V15.4109L6.3995 12.066L2.06475 9.64899V9.64754ZM13.4202 2.1559L3.09975 7.91663L13.4178 13.6771L23.7367 7.91518L13.4178 2.1559H13.4202ZM18.7873 38.1069L24.7743 34.7649V9.64754L20.44 12.0674L14.4513 15.4107V40.5278L18.7873 38.1069ZM50.581 8.95396L40.262 14.7144L50.581 20.4752L60.8988 14.7132L50.581 8.95396ZM49.5485 22.2088L43.5602 18.8652L39.2257 16.4456V27.8492L45.2127 31.1915L49.5488 33.6124V22.2088H49.5485ZM25.8043 47.9072L40.94 39.528L48.506 35.3409L38.1945 29.584L26.3223 36.2119L15.5017 42.2526L25.8043 47.9072Z" fill="#FF2D20"/>
</g>
<defs>
<clipPath id="clip0_106_126">
<rect width="64" height="64" fill="white"/>
</clipPath>
</defs>
</svg>
