<svg width="36" height="36" viewBox="0 0 36 36" fill="none" xmlns="http://www.w3.org/2000/svg">
<path d="M18 5.625C16.5082 5.625 15.0774 6.21763 14.0225 7.27252C12.9676 8.32742 12.375 9.75816 12.375 11.25C12.375 12.7418 12.9676 14.1726 14.0225 15.2275C15.0774 16.2824 16.5082 16.875 18 16.875C19.4918 16.875 20.9226 16.2824 21.9775 15.2275C23.0324 14.1726 23.625 12.7418 23.625 11.25C23.625 9.75816 23.0324 8.32742 21.9775 7.27252C20.9226 6.21763 19.4918 5.625 18 5.625ZM12 19.875C10.5082 19.875 9.07742 20.4676 8.02252 21.5225C6.96763 22.5774 6.375 24.0082 6.375 25.5V27.282C6.375 28.413 7.194 29.376 8.31 29.5575C14.727 30.606 21.273 30.606 27.69 29.5575C28.2301 29.4696 28.7213 29.1924 29.0758 28.7755C29.4303 28.3586 29.625 27.8292 29.625 27.282V25.5C29.625 24.0082 29.0324 22.5774 27.9775 21.5225C26.9226 20.4676 25.4918 19.875 24 19.875H23.49C23.2125 19.875 22.9365 19.92 22.674 20.004L21.375 20.4285C19.1819 21.1443 16.8181 21.1443 14.625 20.4285L13.326 20.004C13.063 19.9184 12.7881 19.8749 12.5115 19.875H12Z" fill="#999999"/>
</svg>
