<svg width="36" height="36" viewBox="0 0 36 36" fill="none" xmlns="http://www.w3.org/2000/svg">
<path d="M18 33.75C14.885 33.75 11.8398 32.8263 9.24978 31.0957C6.6597 29.365 4.64098 26.9052 3.4489 24.0273C2.25682 21.1493 1.94492 17.9825 2.55264 14.9273C3.16036 11.8721 4.6604 9.06575 6.86307 6.86307C9.06575 4.6604 11.8721 3.16036 14.9273 2.55264C17.9825 1.94492 21.1493 2.25682 24.0273 3.4489C26.9052 4.64098 29.365 6.6597 31.0957 9.24978C32.8263 11.8398 33.75 14.885 33.75 18C33.75 22.1772 32.0906 26.1832 29.1369 29.1369C26.1832 32.0906 22.1772 33.75 18 33.75ZM18 4.50001C15.33 4.50001 12.7199 5.29177 10.4998 6.77517C8.27975 8.25857 6.54942 10.367 5.52763 12.8338C4.50585 15.3006 4.23851 18.015 4.75941 20.6337C5.28031 23.2525 6.56606 25.6579 8.45407 27.5459C10.3421 29.434 12.7475 30.7197 15.3663 31.2406C17.985 31.7615 20.6994 31.4942 23.1662 30.4724C25.633 29.4506 27.7414 27.7203 29.2248 25.5002C30.7082 23.2801 31.5 20.6701 31.5 18C31.5 14.4196 30.0777 10.9858 27.5459 8.45407C25.0142 5.92232 21.5804 4.50001 18 4.50001Z" fill="#999999"/>
<path d="M23.1638 24.75L16.875 18.4613V7.875H19.125V17.5275L24.75 23.1637L23.1638 24.75Z" fill="#999999"/>
</svg>
