<svg width="80" height="54" viewBox="0 0 80 54" fill="none" xmlns="http://www.w3.org/2000/svg">
<g clip-path="url(#clip0_106_128)">
<path d="M23.7984 35.6333L26.2297 43.4451C26.7759 45.2187 27.0038 46.4568 26.9125 47.1626C28.2422 43.636 29.1713 39.7929 29.6998 35.6333H32.6233C31.3663 42.4051 29.7083 47.3261 27.6503 50.3959C26.0469 52.7615 24.2903 53.9443 22.3775 53.9443C21.8675 53.9443 21.2388 53.7917 20.4927 53.4888V51.8564C20.8572 51.9093 21.2848 51.9376 21.7767 51.9376C22.6691 51.9376 23.3883 51.6927 23.9355 51.2039C24.5906 50.6083 24.9186 49.939 24.9186 49.1971C24.9186 48.6905 24.6628 47.6509 24.1536 46.0782L20.7661 35.6333H23.7984ZM5.19109 30.832L9.64422 44.2865H9.67172L14.1522 30.832H17.8128C18.6144 37.5045 19.0878 43.6095 19.2331 49.1434H16.1469C16.0383 43.9704 15.7375 39.106 15.2456 34.5495H15.2188L10.5191 49.1434H8.16875L3.4975 34.5495H3.47C3.12344 38.9255 2.90531 43.7898 2.81438 49.1434H0C0.181875 42.6324 0.637031 36.5292 1.36547 30.832H5.19109Z" fill="#00758F"/>
<path d="M55.0778 30.5603C59.8679 30.5603 62.2631 33.5908 62.2631 39.6488C62.2631 42.9408 61.5428 45.4274 60.1036 47.1073C59.8442 47.4143 59.5575 47.6795 59.2556 47.9252L62.6454 49.585L62.6422 49.5848L61.4386 51.643L57.024 49.0923C56.2923 49.3069 55.4872 49.4142 54.6098 49.4142C52.2578 49.4142 50.5009 48.7354 49.3394 47.3795C48.0644 45.8796 47.4272 43.5183 47.4272 40.2996C47.4272 37.0262 48.1462 34.549 49.5859 32.867C50.8972 31.3283 52.7281 30.5603 55.0778 30.5603ZM40.409 30.5869C42.1211 30.5869 43.6778 31.0405 45.08 31.9446L44.3678 33.5162C43.1679 33.0112 41.985 32.7576 40.8184 32.7576C39.8719 32.7576 39.1425 32.9832 38.634 33.4371C38.1228 33.8871 37.8065 34.4661 37.8065 35.1719C37.8065 36.2566 38.5869 37.1972 40.0276 37.9918C40.4996 38.2473 40.97 38.5058 41.4387 38.7672L41.5462 38.8271L41.6001 38.8571L41.7078 38.917L41.7615 38.947L41.869 39.007C42.9597 39.6159 43.9859 40.197 43.9859 40.197C45.4265 41.2097 46.1447 42.2894 46.1447 44.0677C46.1447 45.6207 45.57 46.8955 44.4244 47.893C43.2779 48.8861 41.7378 49.384 39.809 49.384C38.0051 49.384 36.2569 48.8109 34.5634 47.6743L35.3556 46.1013C36.8129 46.8246 38.1317 47.1859 39.3159 47.1859C40.4265 47.1859 41.2959 46.9404 41.9248 46.4555C42.5525 45.967 42.9286 45.2857 42.9286 44.4219C42.9286 43.3346 42.1648 42.4051 40.7637 41.6255C40.3252 41.3855 39.8879 41.1433 39.452 40.8987L39.3447 40.8385C39.1475 40.7282 38.9489 40.6165 38.7544 40.5071L38.6489 40.4477C37.7028 39.9148 36.8848 39.4492 36.8848 39.4492C35.4842 38.4347 34.7819 37.3462 34.7819 35.5526C34.7819 34.0692 35.3056 32.8702 36.3515 31.9581C37.4 31.044 38.7526 30.5869 40.409 30.5869ZM67.8926 30.832V46.8909H73.7111V49.1434H64.9417V30.832H67.8926ZM76.9442 46.8978V47.2785H76.3045V49.1414H75.8154V47.2785H75.1509V46.8978H76.9444H76.9442ZM78.1254 46.8978L78.7397 48.4272L79.3039 46.8978H79.9972V49.1414H79.5362V47.434L78.894 49.1414H78.5617L77.9184 47.434H77.8937V49.1414H77.4576V46.8978H78.1256H78.1254ZM54.7765 32.8122C51.9537 32.8122 50.5415 35.1192 50.5415 39.7301C50.5415 42.3713 50.9158 44.2865 51.6628 45.4802C52.3547 46.585 53.4383 47.1363 54.9137 47.1363C57.7365 47.1363 59.1486 44.8113 59.1486 40.1636C59.1486 37.5594 58.7744 35.6606 58.0283 34.4662C57.3356 33.3639 56.2525 32.8122 54.7767 32.8122H54.7765Z" fill="#F29111"/>
<path d="M47.3778 1.13463C48.3142 -1.14389 51.5885 0.581632 52.8591 1.37755C53.1705 1.57669 53.5277 1.99739 53.8847 2.15289C54.4417 2.17455 54.9983 2.21772 55.5563 2.24078C56.6028 2.48432 57.5831 2.6833 58.4078 3.14841C62.2403 5.38345 64.7352 7.66105 67.0313 11.4231C67.5219 12.2199 67.7671 13.0822 68.1678 13.9445C68.7241 15.2299 69.3491 16.5791 69.9947 17.7945C70.2838 18.3707 70.5074 19.0114 70.9088 19.498C71.0655 19.7205 71.5106 19.7861 71.7767 19.919C72.5124 20.2961 73.4036 20.5824 74.0955 21.0249C75.3875 21.8227 76.6367 22.7733 77.7724 23.7465C78.1957 24.1222 78.4841 24.654 78.8874 25.0514V25.2519C78.5294 25.3607 78.1727 25.4721 77.8156 25.5614C77.0358 25.7597 76.345 25.7148 75.5885 25.9134C75.121 26.0477 74.5405 26.2248 74.0502 26.2699L74.0955 26.315C74.3839 27.1312 75.9446 27.795 76.6583 28.2832C77.5252 28.9027 78.3285 29.6541 78.975 30.517C79.1983 30.7372 79.4216 30.9375 79.6438 31.1571C79.7991 31.3796 79.8428 31.6674 80 31.8657V31.9329C79.826 31.8721 79.7008 31.756 79.5822 31.6347L79.5114 31.5615C79.4406 31.4888 79.3692 31.4173 79.2878 31.3584C78.796 31.0257 78.3075 30.6278 77.8156 30.3185C76.97 29.7871 75.9892 29.4788 75.121 28.9454C74.63 28.6358 74.1621 28.2832 73.6941 27.9288C73.2699 27.6183 72.8027 27.022 72.5361 26.5795C72.3791 26.335 72.3575 26.0477 72.1781 25.8708C72.2102 25.5754 72.4835 25.4877 72.7592 25.4156L72.8227 25.399C72.9178 25.3746 73.011 25.3501 73.0922 25.3178C74.2506 24.8307 75.6317 24.654 77.4152 24.6983C77.348 24.2548 76.2336 23.7023 75.8778 23.4368C75.1638 22.9271 74.4077 22.3953 73.6502 21.9314C73.2488 21.6885 72.5571 21.5112 72.1124 21.3127C71.5106 21.0691 70.1733 20.8258 69.8399 20.3619C69.2735 19.6306 68.8666 18.7584 68.4716 17.8774L68.3641 17.637C68.3282 17.5568 68.2923 17.4767 68.2563 17.3967C67.7894 16.3357 67.2094 15.2296 66.7414 14.1432C66.4967 13.6133 66.3844 13.1482 66.1164 12.6399C64.4903 9.52088 62.0836 6.90953 59.1656 5.07307C58.2067 4.47551 57.1375 3.92251 55.9572 3.54668C55.2883 3.34662 54.4855 3.45725 53.7728 3.30376H53.3038C52.9035 3.19204 52.5692 2.7718 52.2569 2.55023C51.5671 2.08636 50.8761 1.77489 50.0511 1.44393C49.7621 1.31117 48.9366 1.00203 48.6485 1.24541C48.47 1.28982 48.3796 1.35651 48.3356 1.53383C48.1581 1.79841 48.3142 2.19699 48.4247 2.441C48.7594 3.1481 49.2269 3.56834 49.6513 4.1659C50.0288 4.69584 50.4977 5.2934 50.7653 5.86961C51.3428 7.10821 51.6117 8.48049 52.1469 9.71893C52.3453 10.1847 52.6592 10.7146 52.9481 11.1347C53.193 11.4681 53.6381 11.7092 53.7728 12.1313C54.0413 12.5738 53.371 14.034 53.2158 14.4977C52.6353 16.3122 52.7478 18.8344 53.4163 20.4072L53.4519 20.4901L53.4875 20.5742C53.7316 21.1502 53.9928 21.7705 54.6417 21.9316C54.6864 21.8876 54.6417 21.9107 54.7303 21.8876C54.8874 20.6703 54.9316 19.4979 55.3553 18.5454C55.6002 17.9498 56.0891 17.5288 56.4242 17.0427C56.6477 17.1751 56.6477 17.5745 56.7808 17.8387C57.0708 18.5242 57.3822 19.2757 57.7397 19.9631C58.4735 21.3789 59.2991 22.7515 60.2346 23.9899C60.5478 24.4323 60.9924 24.9192 61.3933 25.3177C61.5719 25.4719 61.7719 25.561 61.9061 25.7596H61.9499V25.8264C61.2814 25.5824 60.8577 24.8976 60.3246 24.4978C59.3208 23.7462 58.1188 22.6177 57.4269 21.5347C57.1375 20.913 56.8247 20.3172 56.5128 19.6986V19.6538C56.3796 19.8305 56.4242 20.006 56.3575 20.2734C56.0681 21.3789 56.291 22.6401 55.2883 23.0377C54.1517 23.5035 53.3039 22.2862 52.9481 21.7331C51.8113 19.8971 51.4999 16.7997 52.3016 14.2995C52.4797 13.746 52.5039 13.0822 52.8149 12.6403C52.7477 12.2408 52.4367 12.1316 52.2569 11.8868C51.945 11.4684 51.678 10.981 51.4338 10.5164C50.9647 9.60876 50.631 8.52427 50.2749 7.55088C50.1183 7.15339 50.0735 6.75434 49.9174 6.37804C49.6511 5.8037 49.1603 5.22749 48.7817 4.71936C48.2691 3.98905 46.776 2.5736 47.3778 1.13463ZM54.686 5.46933C54.7455 5.52843 54.8174 5.58011 54.8917 5.63102L54.9814 5.69198C55.101 5.77399 55.2167 5.86033 55.2877 5.97792C55.4002 6.13357 55.4211 6.28722 55.5558 6.44318C55.5558 6.97498 55.4002 7.32854 55.086 7.54887C55.086 7.54887 55.0646 7.57208 55.0425 7.59374C54.8644 7.23926 54.7083 6.88664 54.5289 6.53246C54.308 6.22332 53.9956 5.97807 53.8156 5.62483H53.7724V5.58042C54.0413 5.51466 54.308 5.46933 54.686 5.46933Z" fill="#00758F"/>
</g>
<defs>
<clipPath id="clip0_106_128">
<rect width="80" height="54" fill="white"/>
</clipPath>
</defs>
</svg>
