<svg width="64" height="64" viewBox="0 0 64 64" fill="none" xmlns="http://www.w3.org/2000/svg">
<g clip-path="url(#clip0_106_132)">
<path d="M63.7383 36.0633C65.978 18.5305 53.596 2.50125 36.0952 0.26175C18.5945 -1.978 2.50125 10.404 0.26175 27.9048C-1.978 45.4055 10.404 61.4668 27.9048 63.7383C45.4375 65.978 61.4668 53.596 63.7383 36.0633Z" fill="#FF6C37"/>
<path d="M43.55 20.546L30.0482 34.0478L26.2407 30.2403C39.5185 16.9628 40.8305 18.1145 43.55 20.546Z" fill="white"/>
<path d="M30.0483 34.3675C29.9523 34.3675 29.8883 34.3355 29.8243 34.2715L25.985 30.4642C25.9547 30.4354 25.9306 30.4006 25.9141 30.3621C25.8976 30.3237 25.8891 30.2822 25.8891 30.2404C25.8891 30.1985 25.8976 30.1571 25.9141 30.1186C25.9306 30.0801 25.9547 30.0454 25.985 30.0165C39.4865 16.5147 40.8943 17.7945 43.7418 20.354C43.8058 20.418 43.8378 20.482 43.8378 20.578C43.8378 20.674 43.8058 20.738 43.7418 20.802L30.2403 34.2715C30.2083 34.3355 30.1123 34.3675 30.0483 34.3675ZM26.689 30.2402L30.0483 33.5997L43.07 20.578C40.7025 18.4665 39.1025 17.8262 26.689 30.2402Z" fill="#FF6C37"/>
<path d="M33.9195 37.919L30.2402 34.2395L43.7417 20.738C47.3572 24.3855 41.9502 30.3043 33.9195 37.919Z" fill="white"/>
<path d="M33.9195 38.239C33.8235 38.239 33.7595 38.207 33.6958 38.143L30.0163 34.4635C29.9523 34.3995 29.9523 34.3355 29.9523 34.2395C29.9523 34.1438 29.9843 34.0795 30.0483 34.0158L43.55 20.514C43.5789 20.4837 43.6137 20.4595 43.6522 20.443C43.6907 20.4265 43.7321 20.418 43.774 20.418C43.8159 20.418 43.8574 20.4265 43.8959 20.443C43.9344 20.4595 43.9691 20.4837 43.998 20.514C44.4065 20.892 44.7293 21.3532 44.9445 21.8665C45.1597 22.3797 45.2625 22.9332 45.2458 23.4895C45.1818 27.041 41.1508 31.552 34.1758 38.143C34.0798 38.207 33.9838 38.239 33.9198 38.239H33.9195ZM30.6883 34.2395C32.7358 36.3193 33.5998 37.151 33.9195 37.471C39.2945 32.352 44.5095 27.105 44.5418 23.4895C44.5738 22.6578 44.2538 21.8258 43.7098 21.186L30.6883 34.2395Z" fill="#FF6C37"/>
<path d="M26.305 30.3362L29.0245 33.0557C29.0885 33.1197 29.0885 33.1837 29.0245 33.2477C28.9925 33.2797 28.9925 33.2797 28.9605 33.2797L23.3295 34.4955C23.0415 34.5275 22.7855 34.3355 22.7215 34.0477C22.6895 33.8877 22.7535 33.7277 22.8495 33.6317L26.113 30.3682C26.177 30.3042 26.273 30.2722 26.305 30.3362Z" fill="white"/>
<path d="M23.2335 34.8155C22.7535 34.8155 22.4017 34.4315 22.4017 33.9517C22.4017 33.7277 22.4977 33.5037 22.6577 33.3437L25.921 30.0802C26.113 29.9202 26.369 29.9202 26.561 30.0802L29.2805 32.7997C29.4725 32.9597 29.4725 33.2477 29.2805 33.4397C29.2165 33.5037 29.1525 33.5357 29.0565 33.5677L23.4255 34.7835C23.3615 34.7835 23.2975 34.8155 23.2335 34.8155ZM26.209 30.6882L23.0735 33.8237C23.0095 33.8877 22.9775 33.9837 23.0415 34.0797C23.0735 34.1757 23.1695 34.2075 23.2655 34.1757L28.5445 33.0237L26.209 30.6882Z" fill="#FF6C37"/>
<path d="M50.6846 13.0595C48.6371 11.0758 45.3416 11.1398 43.3581 13.2195C41.3743 15.299 41.4383 18.5625 43.5181 20.546C44.3389 21.3391 45.3991 21.8383 46.5334 21.9657C47.6677 22.093 48.8123 21.8414 49.7886 21.25L46.1411 17.6025L50.6843 13.0595H50.6846Z" fill="white"/>
<path d="M47.1013 22.3057C44.0618 22.3057 41.5983 19.8422 41.5983 16.8027C41.5983 13.7632 44.0618 11.2997 47.1013 11.2997C48.5088 11.2997 49.8848 11.8437 50.9088 12.8355C50.9725 12.8995 51.0045 12.9635 51.0045 13.0595C51.0045 13.1555 50.9725 13.2195 50.9085 13.2835L46.5893 17.6025L49.9808 20.994C50.1088 21.122 50.1088 21.314 49.9808 21.442L49.9168 21.506C49.0848 22.0177 48.093 22.3057 47.1013 22.3057ZM47.1013 11.9717C44.4138 11.9717 42.238 14.1472 42.27 16.8347C42.27 19.5222 44.4458 21.698 47.1333 21.666C47.869 21.666 48.605 21.506 49.2768 21.154L45.9175 17.8265C45.8535 17.7625 45.8215 17.6985 45.8215 17.6025C45.8215 17.5067 45.8535 17.4425 45.9175 17.3787L50.2048 13.0912C49.3408 12.3555 48.253 11.9717 47.1013 11.9717Z" fill="#FF6C37"/>
<path d="M50.7805 13.1555L50.7165 13.0915L46.1415 17.6025L49.7567 21.218C50.1087 20.994 50.4605 20.738 50.7485 20.45C51.2332 19.9752 51.6189 19.4089 51.8831 18.784C52.1474 18.1591 52.285 17.4879 52.288 16.8094C52.291 16.1309 52.1593 15.4586 51.9005 14.8314C51.6417 14.2041 51.261 13.6345 50.7805 13.1555Z" fill="white"/>
<path d="M49.7888 21.57C49.6928 21.57 49.6288 21.538 49.5648 21.474L45.9173 17.8265C45.8535 17.7625 45.8215 17.6985 45.8215 17.6025C45.8215 17.5068 45.8535 17.4425 45.9175 17.3788L50.4605 12.8355C50.4894 12.8052 50.5242 12.781 50.5627 12.7645C50.6012 12.748 50.6426 12.7395 50.6845 12.7395C50.7264 12.7395 50.7679 12.748 50.8064 12.7645C50.8449 12.781 50.8797 12.8052 50.9085 12.8355L51.0045 12.8995C53.1483 15.043 53.1483 18.4985 51.0365 20.674C50.7165 20.994 50.3648 21.282 49.9808 21.506C49.8848 21.538 49.8208 21.57 49.7888 21.57ZM46.5893 17.6025L49.8208 20.834C50.0768 20.674 50.3328 20.45 50.5245 20.2583C52.3483 18.4345 52.4443 15.459 50.6845 13.5393L46.5895 17.6025H46.5893Z" fill="#FF6C37"/>
<path d="M44.0937 21.122C43.7244 20.7533 43.2239 20.5461 42.702 20.5461C42.1801 20.5461 41.6795 20.7533 41.3102 21.122L29.2485 33.1837L31.264 35.1995L44.0297 24.0015C44.8617 23.2975 44.9255 22.0497 44.2217 21.218C44.1577 21.186 44.1257 21.154 44.0937 21.122Z" fill="white"/>
<path d="M31.232 35.5195C31.136 35.5195 31.072 35.4875 31.008 35.4235L28.9925 33.4078C28.9622 33.3789 28.938 33.3441 28.9215 33.3056C28.905 33.2671 28.8965 33.2257 28.8965 33.1838C28.8965 33.1419 28.905 33.1004 28.9215 33.0619C28.938 33.0234 28.9622 32.9886 28.9925 32.9598L41.0543 20.898C41.266 20.6851 41.5178 20.5161 41.7951 20.4008C42.0724 20.2855 42.3697 20.2261 42.67 20.2261C42.9703 20.2261 43.2677 20.2855 43.545 20.4008C43.8222 20.5161 44.074 20.6851 44.2858 20.898C44.4987 21.1098 44.6677 21.3615 44.783 21.6388C44.8983 21.9161 44.9576 22.2135 44.9576 22.5138C44.9576 22.8141 44.8983 23.1114 44.783 23.3887C44.6677 23.666 44.4987 23.9177 44.2858 24.1295L44.1898 24.2255L31.424 35.4235C31.392 35.4875 31.328 35.5195 31.232 35.5195ZM29.6963 33.1838L31.264 34.7515L43.8058 23.7455C44.5098 23.1695 44.5738 22.1138 43.9978 21.41C43.422 20.706 42.366 20.642 41.6623 21.218C41.6303 21.25 41.5983 21.282 41.5343 21.314L29.6963 33.1838Z" fill="#FF6C37"/>
<path d="M20.002 46.9093C19.8743 46.9733 19.8103 47.1013 19.842 47.2293L20.386 49.5328C20.514 49.8528 20.322 50.2368 19.97 50.3328C19.7143 50.4288 19.4263 50.3328 19.2663 50.1408L15.7468 46.6533L27.2328 35.1675L31.2003 35.2315L33.8878 37.919C33.2478 38.4628 29.3765 42.2063 20.002 46.9093Z" fill="white"/>
<path d="M19.7463 50.6525C19.4903 50.6525 19.2343 50.5568 19.0743 50.3648L15.5868 46.8773C15.523 46.8133 15.491 46.7493 15.491 46.6535C15.491 46.5575 15.523 46.4935 15.587 46.4295L27.0728 34.9435C27.1368 34.8795 27.2328 34.8475 27.2968 34.8475L31.2643 34.9115C31.36 34.9115 31.4243 34.9435 31.488 35.0075L34.1755 37.695C34.2395 37.759 34.2715 37.855 34.2715 37.951C34.2715 38.047 34.2395 38.111 34.1435 38.175L33.9195 38.3668C30.5283 41.3423 25.921 44.3178 20.194 47.1653L20.738 49.437C20.834 49.8528 20.642 50.3008 20.258 50.5245C20.066 50.6208 19.906 50.6525 19.7463 50.6525ZM16.2268 46.6535L19.5223 49.9168C19.6183 50.0768 19.8103 50.1408 19.97 50.0448C20.13 49.9488 20.194 49.7568 20.098 49.5968L19.5543 47.2933C19.4903 47.0053 19.6183 46.7493 19.8743 46.6215C25.537 43.774 30.1123 40.8305 33.4718 37.919L31.1043 35.5515L27.4248 35.4875L16.2268 46.6535Z" fill="#FF6C37"/>
<path d="M13.0275 49.405L15.7788 46.6535L19.8743 50.7485L13.3473 50.3008C13.0593 50.2688 12.8673 50.0128 12.8995 49.7248C12.8995 49.5968 12.9315 49.4688 13.0273 49.4048L13.0275 49.405Z" fill="white"/>
<path d="M19.8743 51.0365L13.3153 50.5888C12.8353 50.5568 12.5153 50.1408 12.5475 49.6608C12.5795 49.4688 12.6435 49.277 12.8035 49.149L15.555 46.3975C15.5839 46.3672 15.6186 46.3431 15.6571 46.3266C15.6956 46.3101 15.737 46.3016 15.7789 46.3016C15.8208 46.3016 15.8622 46.3101 15.9007 46.3266C15.9392 46.3431 15.9739 46.3672 16.0028 46.3975L20.098 50.4925C20.194 50.5888 20.226 50.7168 20.162 50.8445C20.098 50.9725 20.002 51.0365 19.8743 51.0365ZM15.7788 47.1015L13.2513 49.629C13.1553 49.6928 13.1553 49.8528 13.2513 49.9168C13.2833 49.9488 13.3153 49.9808 13.3793 49.9808L19.0423 50.3648L15.7788 47.1013V47.1015ZM26.113 36.6393C25.921 36.6393 25.793 36.4793 25.793 36.3193C25.793 36.2233 25.825 36.1593 25.889 36.0953L28.9925 32.9918C29.0214 32.9614 29.0562 32.9373 29.0947 32.9207C29.1332 32.9042 29.1746 32.8957 29.2165 32.8957C29.2584 32.8957 29.2999 32.9042 29.3384 32.9207C29.3769 32.9373 29.4116 32.9614 29.4405 32.9918L31.456 35.0075C31.552 35.1035 31.584 35.1995 31.552 35.3275C31.52 35.4235 31.424 35.5195 31.296 35.5515L26.177 36.639H26.113V36.6393ZM29.2165 33.6638L27.1048 35.7753L30.5603 35.0395L29.2165 33.6638Z" fill="#FF6C37"/>
<path d="M31.2 35.2315L27.6807 35.9992C27.4247 36.0632 27.1687 35.9032 27.1047 35.6472C27.0727 35.4872 27.1047 35.3272 27.2327 35.1995L29.1845 33.2477L31.2 35.2315Z" fill="white"/>
<path d="M27.6168 36.3192C27.5114 36.3203 27.4069 36.3004 27.3093 36.2605C27.2118 36.2207 27.1232 36.1618 27.0487 36.0873C26.9742 36.0128 26.9153 35.9242 26.8755 35.8267C26.8356 35.7291 26.8157 35.6246 26.8168 35.5192C26.8168 35.2955 26.9128 35.1035 27.0408 34.9435L28.9925 32.9917C29.0214 32.9614 29.0561 32.9372 29.0946 32.9207C29.1331 32.9042 29.1746 32.8957 29.2165 32.8957C29.2584 32.8957 29.2999 32.9042 29.3384 32.9207C29.3769 32.9372 29.4116 32.9614 29.4405 32.9917L31.456 35.0075C31.552 35.1035 31.584 35.1995 31.552 35.3275C31.52 35.4235 31.424 35.5195 31.296 35.5515L27.7768 36.3192H27.6168ZM29.2165 33.6637L27.4888 35.3912C27.4248 35.4555 27.4248 35.5195 27.4568 35.5832C27.4888 35.6472 27.5528 35.6792 27.6488 35.6792L30.5923 35.0392L29.2165 33.6637ZM50.8125 16.2267C50.7485 16.035 50.5245 15.939 50.3325 16.003C50.1408 16.067 50.0448 16.2907 50.1088 16.483C50.1088 16.5147 50.1408 16.5467 50.1408 16.5787C50.3328 16.9627 50.2688 17.4427 50.0128 17.7945C49.8848 17.9545 49.9168 18.1785 50.0448 18.3065C50.2048 18.4345 50.4285 18.4025 50.5565 18.2425C51.0365 17.6345 51.1325 16.8667 50.8125 16.2267Z" fill="#FF6C37"/>
</g>
<defs>
<clipPath id="clip0_106_132">
<rect width="64" height="64" fill="white"/>
</clipPath>
</defs>
</svg>
