<svg width="36" height="36" viewBox="0 0 36 36" fill="none" xmlns="http://www.w3.org/2000/svg">
<g clip-path="url(#clip0_106_96)">
<path d="M21.729 4.7145C22.1119 4.82218 22.4363 5.07751 22.631 5.42433C22.8256 5.77116 22.8746 6.18109 22.767 6.564L16.122 30.246C16.0689 30.4357 15.9788 30.6131 15.8571 30.768C15.7354 30.9229 15.5843 31.0523 15.4126 31.1488C15.2408 31.2453 15.0518 31.3071 14.8562 31.3305C14.6606 31.354 14.4622 31.3387 14.2725 31.2855C14.0828 31.2323 13.9055 31.1423 13.7506 31.0206C13.5957 30.8988 13.4663 30.7478 13.3698 30.576C13.2732 30.4043 13.2115 30.2152 13.188 30.0196C13.1646 29.824 13.1799 29.6257 13.233 29.436L19.878 5.754C19.9312 5.56412 20.0213 5.38659 20.1431 5.23156C20.2649 5.07652 20.4161 4.94703 20.588 4.85048C20.7599 4.75394 20.9492 4.69223 21.145 4.6689C21.3408 4.64556 21.5393 4.66106 21.729 4.7145ZM10.8105 10.575C11.0918 10.8563 11.2497 11.2377 11.2497 11.6355C11.2497 12.0332 11.0918 12.4147 10.8105 12.696L5.50804 18L10.8105 23.3025C10.9499 23.4418 11.0605 23.6071 11.1359 23.7891C11.2114 23.9711 11.2503 24.1662 11.2503 24.3632C11.2504 24.5602 11.2117 24.7553 11.1363 24.9374C11.061 25.1194 10.9506 25.2849 10.8113 25.4242C10.672 25.5636 10.5067 25.6742 10.3247 25.7496C10.1427 25.8251 9.9476 25.864 9.75057 25.864C9.55355 25.8641 9.35844 25.8254 9.17639 25.75C8.99434 25.6747 8.82891 25.5643 8.68954 25.425L2.32504 19.0605C2.04384 18.7792 1.88586 18.3977 1.88586 18C1.88586 17.6022 2.04384 17.2208 2.32504 16.9395L8.68954 10.575C8.97084 10.2938 9.3523 10.1358 9.75004 10.1358C10.1478 10.1358 10.5293 10.2938 10.8105 10.575ZM25.1895 12.696C25.0463 12.5576 24.932 12.3921 24.8534 12.2091C24.7748 12.0261 24.7334 11.8293 24.7317 11.6301C24.7299 11.4309 24.7679 11.2334 24.8433 11.0491C24.9187 10.8647 25.0301 10.6972 25.171 10.5564C25.3118 10.4156 25.4793 10.3042 25.6636 10.2288C25.848 10.1533 26.0455 10.1154 26.2446 10.1171C26.4438 10.1189 26.6406 10.1602 26.8237 10.2388C27.0067 10.3175 27.1722 10.4317 27.3105 10.575L33.675 16.9395C33.9563 17.2208 34.1142 17.6022 34.1142 18C34.1142 18.3977 33.9563 18.7792 33.675 19.0605L27.3105 25.4235C27.0276 25.6967 26.6487 25.8479 26.2554 25.8445C25.8621 25.8411 25.4859 25.6833 25.2078 25.4052C24.9297 25.1271 24.7719 24.7509 24.7685 24.3576C24.7651 23.9643 24.9163 23.5854 25.1895 23.3025L30.492 18L25.1895 12.696Z" fill="#999999"/>
</g>
<defs>
<clipPath id="clip0_106_96">
<rect width="36" height="36" fill="white"/>
</clipPath>
</defs>
</svg>
